<?xml version="1.0" encoding="UTF-8"?>
<svg version="1.1" xmlns="http://www.w3.org/2000/svg" width="200" height="200">
<path d="M0 0 C66 0 132 0 200 0 C200 66 200 132 200 200 C134 200 68 200 0 200 C0 134 0 68 0 0 Z " fill="#2A41E6" transform="translate(0,0)"/>
<path d="M0 0 C0.99491455 0.57693604 1.9898291 1.15387207 3.01489258 1.74829102 C5.10221694 2.96106475 7.18673119 4.17868659 9.26855469 5.40087891 C12.39592512 7.22574051 15.54217753 9.01306919 18.6953125 10.79296875 C20.67236312 11.92362607 22.64894335 13.0551064 24.625 14.1875 C25.55062744 14.70602539 26.47625488 15.22455078 27.42993164 15.75878906 C28.29223389 16.25991211 29.15453613 16.76103516 30.04296875 17.27734375 C30.79731201 17.70781006 31.55165527 18.13827637 32.32885742 18.58178711 C36.14889159 21.60393525 38.13753973 24.08306173 38.80534363 28.90733337 C38.96777148 32.23674838 38.99171715 35.54167832 38.96875 38.875 C38.97449036 40.70538818 38.97449036 40.70538818 38.98034668 42.57275391 C38.98306401 45.14812039 38.97571555 47.72351456 38.95898438 50.29882812 C38.93757447 54.23630422 38.95879456 58.17195553 38.984375 62.109375 C38.98173169 64.61458735 38.97660667 67.11979857 38.96875 69.625 C38.97684692 70.8001416 38.98494385 71.9752832 38.99328613 73.18603516 C38.92315486 79.31187857 38.86115008 83.59088107 34.4375 88.25 C31.79052734 90.24121094 31.79052734 90.24121094 28.7734375 91.984375 C27.6596875 92.63664062 26.5459375 93.28890625 25.3984375 93.9609375 C24.20363504 94.64152118 23.00831186 95.32119144 21.8125 96 C20.58810638 96.7049737 19.36415066 97.41070847 18.140625 98.1171875 C15.70691024 99.51969999 13.26848131 100.91353305 10.82714844 102.30273438 C7.87109793 104.00090917 4.94994877 105.74164678 2.0390625 107.515625 C0.5056043 108.42774935 -1.02821724 109.33926332 -2.5625 110.25 C-3.22330566 110.66475586 -3.88411133 111.07951172 -4.56494141 111.50683594 C-10.09040883 114.69970003 -15.28022927 115.49813997 -21.5625 114.25 C-26.4236708 112.20606554 -30.83612759 109.56824859 -35.3125 106.8125 C-36.5542241 106.07042373 -37.79715381 105.33036123 -39.04125977 104.59228516 C-41.46956621 103.14720211 -43.88959417 101.68967379 -46.30322266 100.22021484 C-49.03007 98.57185094 -51.77179983 96.96659729 -54.54296875 95.39453125 C-68.10693602 87.61669194 -68.10693602 87.61669194 -70.5625 80.25 C-70.66983796 78.54882964 -70.72119985 76.84385936 -70.73950195 75.1394043 C-70.75233719 74.09789719 -70.76517242 73.05639008 -70.77839661 71.98332214 C-70.78578354 70.85831802 -70.79317047 69.7333139 -70.80078125 68.57421875 C-70.808853 67.41630325 -70.81692474 66.25838776 -70.82524109 65.06538391 C-70.83907855 62.61334734 -70.84980221 60.16129153 -70.85766602 57.70922852 C-70.87488427 53.96268178 -70.91877576 50.21701614 -70.96289062 46.47070312 C-70.97301714 44.08854816 -70.98153337 41.70638569 -70.98828125 39.32421875 C-71.00578934 38.20528732 -71.02329742 37.0863559 -71.04133606 35.93351746 C-71.02448903 29.88149204 -70.84067973 25.92265514 -66.5625 21.25 C-64.6184082 19.59545898 -64.6184082 19.59545898 -62.55078125 18.30859375 C-61.76268066 17.81343262 -60.97458008 17.31827148 -60.16259766 16.80810547 C-58.87554932 16.03684326 -58.87554932 16.03684326 -57.5625 15.25 C-56.64388184 14.69844238 -55.72526367 14.14688477 -54.77880859 13.57861328 C-51.78042838 11.80322363 -48.7679963 10.05431501 -45.75 8.3125 C-44.74646484 7.73048828 -43.74292969 7.14847656 -42.70898438 6.54882812 C-40.68802845 5.37675157 -38.6657361 4.20697621 -36.64208984 3.03955078 C-34.51000196 1.80059374 -32.38579022 0.54802032 -30.26806641 -0.71533203 C-29.2063623 -1.34681152 -28.1446582 -1.97829102 -27.05078125 -2.62890625 C-26.09341064 -3.20326416 -25.13604004 -3.77762207 -24.1496582 -4.36938477 C-15.04366033 -9.22872401 -8.09733694 -4.77148586 0 0 Z " fill="#FAFCFE" transform="translate(115.5625,45.75)"/>
<path d="M0 0 C4.2670832 0.08534166 7.28791588 0.67600763 10.4375 3.5625 C13.41773651 7.40226564 13.64035475 11.47911043 13.75 16.1875 C13.77763428 16.88883057 13.80526855 17.59016113 13.83374023 18.31274414 C13.796875 20.35546875 13.796875 20.35546875 13 24 C11.02 25.32 9.04 26.64 7 28 C18.55 28.33 30.1 28.66 42 29 C42 19.43 42 9.86 42 0 C50.552146 1.22173514 50.552146 1.22173514 53.87042236 5.5708313 C56.3577942 10.91995084 55.71976893 16.90701145 55.5859375 22.68359375 C55.57473174 24.10846665 55.56619807 25.53336283 55.56021118 26.95826721 C55.53742004 30.68904667 55.47858588 34.41840034 55.4119873 38.14862061 C55.35035154 41.96281654 55.32315114 45.77724533 55.29296875 49.59179688 C55.22882871 57.06184441 55.1265728 64.53072162 55 72 C48.21777344 71.16308594 48.21777344 71.16308594 46.2578125 69.6953125 C42.47293371 64.44868742 41.87873404 61.21798942 41.9375 54.8125 C41.94652344 53.54019531 41.95554688 52.26789063 41.96484375 50.95703125 C41.97644531 49.98121094 41.98804688 49.00539062 42 48 C45.465 46.02 45.465 46.02 49 44 C31.675 43.505 31.675 43.505 14 43 C14 52.57 14 62.14 14 72 C8.56198044 70.91239609 7.48346601 70.04835239 4 66 C1.86166953 62.61448809 1.7565539 59.91395596 1.77294922 55.94628906 C1.77310028 54.72532532 1.77325134 53.50436157 1.77340698 52.24639893 C1.78372955 50.93274353 1.79405212 49.61908813 1.8046875 48.265625 C1.80841958 46.90370898 1.81126563 45.54179027 1.81326294 44.17987061 C1.82088406 40.60252414 1.84051931 37.02534115 1.8626709 33.44805908 C1.88316222 29.7948223 1.89227167 26.14155899 1.90234375 22.48828125 C1.92376678 15.32544647 1.95788418 8.16274617 2 1 C1.34 0.67 0.68 0.34 0 0 Z " fill="#2A41E5" transform="translate(72,64)"/>
<path d="M0 0 C4.2670832 0.08534166 7.28791588 0.67600763 10.4375 3.5625 C13.41773651 7.40226564 13.64035475 11.47911043 13.75 16.1875 C13.77763428 16.88883057 13.80526855 17.59016113 13.83374023 18.31274414 C13.796875 20.35546875 13.796875 20.35546875 13 24 C11.02 25.32 9.04 26.64 7 28 C18.55 28.33 30.1 28.66 42 29 C42 29.66 42 30.32 42 31 C29.46 31 16.92 31 4 31 C4.33 41.89 4.66 52.78 5 64 C4.34 64 3.68 64 3 64 C1.64855346 61.29710692 1.88024835 59.19930194 1.88647461 56.17333984 C1.88658791 54.34166763 1.88658791 54.34166763 1.88670349 52.47299194 C1.89181048 51.13564005 1.89702648 49.79828857 1.90234375 48.4609375 C1.9042086 47.09616141 1.90563219 45.73138466 1.90663147 44.36660767 C1.91045137 40.77284907 1.92027717 37.17913083 1.93133545 33.58538818 C1.94156089 29.91891018 1.94613152 26.25242565 1.95117188 22.5859375 C1.9618999 15.39060659 1.97897001 8.19530895 2 1 C1.34 0.67 0.68 0.34 0 0 Z " fill="#5968DB" transform="translate(72,64)"/>
<path d="M0 0 C12.54 0 25.08 0 38 0 C38.66 1.32 39.32 2.64 40 4 C40.33 3.34 40.66 2.68 41 2 C41 10.58 41 19.16 41 28 C39.02 28.99 39.02 28.99 37 30 C30.46984925 25.03140704 30.46984925 25.03140704 29 20 C28.8046875 16.44921875 28.8046875 16.44921875 28.875 12.6875 C28.89304687 11.43324219 28.91109375 10.17898437 28.9296875 8.88671875 C28.95289062 7.93410156 28.97609375 6.98148437 29 6 C31.31 4.68 33.62 3.36 36 2 C24.45 1.67 12.9 1.34 1 1 C1 10.57 1 20.14 1 30 C0.67 30 0.34 30 0 30 C0 20.1 0 10.2 0 0 Z " fill="#4356E3" transform="translate(85,106)"/>
<path d="M0 0 C5 0 5 0 7.28125 1.9921875 C9.4301517 5.75276547 9.5921254 8.91026306 9.5 13.125 C9.51546875 13.84042969 9.5309375 14.55585937 9.546875 15.29296875 C9.52268571 18.52828563 9.43291967 20.49820675 7.28125 22.9921875 C5 24 5 24 0 24 C0 16.08 0 8.16 0 0 Z " fill="#2A41E5" transform="translate(76,67)"/>
<path d="M0 0 C0.33 0 0.66 0 1 0 C1.00586624 0.63591568 1.01173248 1.27183136 1.01777649 1.92701721 C1.08184902 8.56239249 1.16630467 15.19728899 1.26245117 21.83227539 C1.29564804 24.30649492 1.32369618 26.78078922 1.34643555 29.25512695 C1.38007701 32.81754334 1.43239987 36.37927772 1.48828125 39.94140625 C1.49786613 41.59336754 1.49786613 41.59336754 1.50764465 43.27870178 C1.62179643 49.27949607 2.15697813 53.68133161 5 59 C2 58 2 58 0.33477783 55.77032471 C-1.10666442 52.77861852 -1.36965082 50.96983383 -1.35644531 47.67480469 C-1.35944641 46.63733093 -1.36244751 45.59985718 -1.36553955 44.53094482 C-1.35319275 43.42245178 -1.34084595 42.31395874 -1.328125 41.171875 C-1.32625183 40.02712708 -1.32437866 38.88237915 -1.32244873 37.70294189 C-1.31573634 35.2889107 -1.30183808 32.87489023 -1.28125 30.4609375 C-1.24999914 26.74989817 -1.24026885 23.03928307 -1.234375 19.328125 C-1.22520892 16.98436978 -1.21483441 14.6406189 -1.203125 12.296875 C-1.19887512 11.18028503 -1.19462524 10.06369507 -1.19024658 8.91326904 C-1.18063904 7.88840393 -1.17103149 6.86353882 -1.16113281 5.80761719 C-1.15430481 4.90114441 -1.14747681 3.99467163 -1.14044189 3.06072998 C-1 1 -1 1 0 0 Z " fill="#2F42CB" transform="translate(44,74)"/>
<path d="M0 0 C0.99 0 1.98 0 3 0 C4.35566105 2.7113221 4.16231085 4.88307998 4.20532227 7.91845703 C4.22526749 9.15959259 4.24521271 10.40072815 4.26576233 11.67947388 C4.2827466 13.0389188 4.29962541 14.39836505 4.31640625 15.7578125 C4.33697581 17.14501567 4.35797228 18.53221257 4.37937927 19.91940308 C4.43459981 23.57227505 4.48400911 27.22520359 4.53222656 30.87817383 C4.58244175 34.60503174 4.63812771 38.33180741 4.69335938 42.05859375 C4.80094071 49.37232621 4.90238568 56.68612701 5 64 C4.01 64 3.02 64 2 64 C1.814375 64.763125 1.62875 65.52625 1.4375 66.3125 C-0.56945885 70.06464046 -3.12432063 70.52019515 -7 72 C-7.495 72.99 -7.495 72.99 -8 74 C-9.65 74 -11.3 74 -13 74 C-9.44992972 71.0046282 -5.79755825 68.62347465 -1.76953125 66.34375 C0.38808377 64.70529621 0.99384079 63.51182083 2 61 C2.30141923 58.3696569 2.30141923 58.3696569 2.25878906 55.48461914 C2.26509338 54.37989761 2.27139771 53.27517609 2.27789307 52.13697815 C2.2738446 50.94837692 2.26979614 49.7597757 2.265625 48.53515625 C2.26753845 47.30969589 2.2694519 46.08423553 2.27142334 44.82164001 C2.2727843 42.23013097 2.26909408 39.63861509 2.26074219 37.04711914 C2.25005092 33.08138691 2.26063613 29.11610865 2.2734375 25.15039062 C2.27211571 22.6328115 2.26955291 20.11523266 2.265625 17.59765625 C2.26967346 16.41107925 2.27372192 15.22450226 2.27789307 14.00196838 C2.27158875 12.8940947 2.26528442 11.78622101 2.25878906 10.64477539 C2.25719788 9.67310928 2.25560669 8.70144318 2.25396729 7.70033264 C1.98195333 4.808117 1.20490463 2.62970678 0 0 Z " fill="#4556D2" transform="translate(151,67)"/>
<path d="M0 0 C4.82220418 4.10374756 4.82220418 4.10374756 5.60127258 8.03096008 C5.59016953 9.15681015 5.57906647 10.28266022 5.56762695 11.44262695 C5.5672493 12.72357742 5.56687164 14.00452789 5.56648254 15.32429504 C5.54095309 16.71230044 5.51487318 18.1002958 5.48828125 19.48828125 C5.47894881 20.91601827 5.47183473 22.34377136 5.46684265 23.77153015 C5.44780601 27.51857168 5.39873633 31.26463493 5.34332275 35.0112915 C5.29205685 38.83877327 5.2693131 42.66641405 5.24414062 46.49414062 C5.19061232 53.99653841 5.10534252 61.49813182 5 69 C3.68 68.67 2.36 68.34 1 68 C2.485 67.505 2.485 67.505 4 67 C3.89247906 59.35907968 3.77984163 51.71824936 3.66066074 44.07750225 C3.60548208 40.52964549 3.55207023 36.98178041 3.50268555 33.43383789 C3.44584148 29.35554042 3.38133199 25.27739562 3.31640625 21.19921875 C3.29133751 19.28661507 3.29133751 19.28661507 3.26576233 17.33537292 C3.24581711 16.15437515 3.22587189 14.97337738 3.20532227 13.7565918 C3.18200584 12.19439156 3.18200584 12.19439156 3.15821838 10.60063171 C3.10531325 7.88588267 3.10531325 7.88588267 2 5 C1.34 4.67 0.68 4.34 0 4 C0 2.68 0 1.36 0 0 Z " fill="#3242BD" transform="translate(122,67)"/>
<path d="M0 0 C2.31 0.33 4.62 0.66 7 1 C7.33 1.66 7.66 2.32 8 3 C6.68 3.33 5.36 3.66 4 4 C2.98888907 7.04913228 2.98888907 7.04913228 4 10 C4.039992 11.99960012 4.04346799 14.00047242 4 16 C3.34 16 2.68 16 2 16 C1.67 20.29 1.34 24.58 1 29 C0.67 29 0.34 29 0 29 C0 19.43 0 9.86 0 0 Z " fill="#374BD5" transform="translate(114,64)"/>
<path d="M0 0 C0.66 0 1.32 0 2 0 C2 9.9 2 19.8 2 30 C-4 28 -4 28 -5.875 25.375 C-6.431875 24.199375 -6.431875 24.199375 -7 23 C-6.01 23 -5.02 23 -4 23 C-3.67 24.32 -3.34 25.64 -3 27 C-2.01 27 -1.02 27 0 27 C0 18.09 0 9.18 0 0 Z " fill="#3446CF" transform="translate(83,106)"/>
<path d="M0 0 C1.65 0 3.3 0 5 0 C1.94247195 2.56437837 -1.20531862 4.79355743 -4.5625 6.9375 C-8.07472736 9.23800892 -10.61880763 11.4799765 -13 15 C-13 13.02 -13 11.04 -13 9 C-11.68 8.67 -10.36 8.34 -9 8 C-9 7.01 -9 6.02 -9 5 C-8.34 4.67 -7.68 4.34 -7 4 C-7 3.34 -7 2.68 -7 2 C-4.69 2 -2.38 2 0 2 C0 1.34 0 0.68 0 0 Z " fill="#3B4BD2" transform="translate(58,58)"/>
<path d="M0 0 C0.33 0 0.66 0 1 0 C1 8.58 1 17.16 1 26 C-0.98 26.99 -0.98 26.99 -3 28 C-4.32 26.68 -5.64 25.36 -7 24 C-5.02 23.67 -3.04 23.34 -1 23 C-0.67 15.41 -0.34 7.82 0 0 Z " fill="#2B42D8" transform="translate(125,108)"/>
<path d="M0 0 C3.54693713 2.86677961 4.88733619 4.30442341 5.62890625 8.8828125 C5.63285661 10.29704272 5.61012936 11.71156653 5.5625 13.125 C5.57345703 13.84042969 5.58441406 14.55585937 5.59570312 15.29296875 C5.54855095 18.65649059 5.46414202 20.5159255 3.08984375 22.9921875 C1 24 1 24 -1 24 C-0.67 22.68 -0.34 21.36 0 20 C0.99 20 1.98 20 3 20 C3.22133496 13.88869574 3.00988433 8.79319601 1 3 C0.67 2.01 0.34 1.02 0 0 Z " fill="#3C49CD" transform="translate(80,67)"/>
<path d="M0 0 C0.33 0 0.66 0 1 0 C1.33 2.31 1.66 4.62 2 7 C1.01 7 0.02 7 -1 7 C-1.185625 7.763125 -1.37125 8.52625 -1.5625 9.3125 C-3.56945885 13.06464046 -6.12432063 13.52019515 -10 15 C-10.33 15.66 -10.66 16.32 -11 17 C-12.65 17 -14.3 17 -16 17 C-13.08272764 14.53855145 -10.21242585 12.56649562 -6.875 10.75 C-2.28938411 7.98997836 -1.37296321 5.06280182 0 0 Z " fill="#3D4CCF" transform="translate(154,124)"/>
<path d="M0 0 C1.98 0 3.96 0 6 0 C6.33 0.66 6.66 1.32 7 2 C6.401875 2.0825 5.80375 2.165 5.1875 2.25 C2.4033704 3.20455872 1.56688858 4.57132271 0 7 C0 4.69 0 2.38 0 0 Z " fill="#3248D8" transform="translate(115,65)"/>
<path d="M0 0 C0 0.66 0 1.32 0 2 C-1.98 2.99 -1.98 2.99 -4 4 C-5.32 2.68 -6.64 1.36 -8 0 C-4.71303767 -0.79953138 -3.28976808 -1.09658936 0 0 Z " fill="#4454D8" transform="translate(126,132)"/>
<path d="M0 0 C0.66 0.33 1.32 0.66 2 1 C-1.17320782 4.53586014 -3.16743695 6.58578031 -8 7 C-5.42215154 4.35247996 -3.08351902 2.05567935 0 0 Z " fill="#E5F0FE" transform="translate(56,62)"/>
<path d="M0 0 C1.65 1.65 3.3 3.3 5 5 C4.67 5.99 4.34 6.98 4 8 C2 6.25 2 6.25 0 4 C0 2.68 0 1.36 0 0 Z " fill="#4252CF" transform="translate(122,67)"/>
</svg>
