<?xml version="1.0" encoding="UTF-8"?>
<svg version="1.1" xmlns="http://www.w3.org/2000/svg" width="200" height="200">
<path d="M0 0 C66 0 132 0 200 0 C200 66 200 132 200 200 C134 200 68 200 0 200 C0 134 0 68 0 0 Z " fill="#FEFEFE" transform="translate(0,0)"/>
<path d="M0 0 C1.65 0 3.3 0 5 0 C5 7.26 5 14.52 5 22 C3.02 22 1.04 22 -1 22 C-1.495 22.495 -1.495 22.495 -2 23 C-3.99958364 23.04080783 -6.00045254 23.04254356 -8 23 C-8 23.66 -8 24.32 -8 25 C-6.68 25 -5.36 25 -4 25 C-4 27.31 -4 29.62 -4 32 C-3.01 31.505 -3.01 31.505 -2 31 C1.67179103 30.52107074 3.35633954 30.52572387 6.375 32.75 C8.85354783 37.70709566 8.31247714 42.55768977 8 48 C6.02 48 4.04 48 2 48 C1.505 42.06 1.505 42.06 1 36 C0.01 36 -0.98 36 -2 36 C-2.33 39.96 -2.66 43.92 -3 48 C-5.08268593 48.08126087 -7.16628658 48.13930839 -9.25 48.1875 C-10.99023438 48.23970703 -10.99023438 48.23970703 -12.765625 48.29296875 C-16.22268407 47.97982934 -17.51565563 47.34290892 -20 45 C-20.99 45.495 -20.99 45.495 -22 46 C-22 45.34 -22 44.68 -22 44 C-22.680625 44.66 -23.36125 45.32 -24.0625 46 C-27.77807226 48.52975133 -29.5882483 48.7878128 -34 48 C-36.11441211 46.16644965 -37.39277174 44.33778657 -39 42 C-39.33 43.98 -39.66 45.96 -40 48 C-41.98 48 -43.96 48 -46 48 C-46 44.04 -46 40.08 -46 36 C-48.475 36.495 -48.475 36.495 -51 37 C-51.33 40.63 -51.66 44.26 -52 48 C-53.65 48 -55.3 48 -57 48 C-57.33 44.37 -57.66 40.74 -58 37 C-59.65 36.67 -61.3 36.34 -63 36 C-63 39.63 -63 43.26 -63 47 C-64.65 47 -66.3 47 -68 47 C-68 41.72 -68 36.44 -68 31 C-63.38 31 -58.76 31 -54 31 C-54 30.34 -54 29.68 -54 29 C-55.32 28.67 -56.64 28.34 -58 28 C-57.67 26.68 -57.34 25.36 -57 24 C-55.88625 24.061875 -54.7725 24.12375 -53.625 24.1875 C-52.42875 24.125625 -51.2325 24.06375 -50 24 C-49.34 23.01 -48.68 22.02 -48 21 C-48.66 21.33 -49.32 21.66 -50 22 C-55.38420767 22.45823044 -55.38420767 22.45823044 -57.6640625 20.76171875 C-59.33323299 18.56056117 -59.43287617 17.30443225 -59.4375 14.5625 C-59.45683594 13.80066406 -59.47617187 13.03882812 -59.49609375 12.25390625 C-58.79434953 9.06566675 -57.61843136 7.91729767 -55 6 C-51.984375 5.609375 -51.984375 5.609375 -48.75 5.75 C-47.67234375 5.78609375 -46.5946875 5.8221875 -45.484375 5.859375 C-44.66453125 5.90578125 -43.8446875 5.9521875 -43 6 C-42.67 6.66 -42.34 7.32 -42 8 C-41.46375 7.505 -40.9275 7.01 -40.375 6.5 C-37.33326715 4.57890557 -35.53950857 4.54814784 -32 5 C-30.375 6.4375 -30.375 6.4375 -29 8 C-26.89667109 8.71447643 -26.89667109 8.71447643 -25 9 C-25 8.34 -25 7.68 -25 7 C-21.48175489 4.65450326 -20.14224306 4.42008597 -16 5 C-13.125 7.5 -13.125 7.5 -11 10 C-10.278125 9.154375 -9.55625 8.30875 -8.8125 7.4375 C-6 5 -6 5 -3.1875 5.1875 C-2.1046875 5.5896875 -2.1046875 5.5896875 -1 6 C-0.67 4.02 -0.34 2.04 0 0 Z " fill="#EDEFF1" transform="translate(118,73)"/>
<path d="M0 0 C1.625 1.4375 1.625 1.4375 3 3 C5.10332891 3.71447643 5.10332891 3.71447643 7 4 C7 3.34 7 2.68 7 2 C10.49124017 -0.32749345 11.89222251 -0.50299316 16 0 C19.23062308 2.18285343 19.90767139 3.66146175 20.9375 7.4375 C21.00754154 11.42986787 20.46465254 12.91918433 18 16 C15 18 15 18 12 17.8125 C8.99224715 16.99790027 7.88178097 16.4044979 6 14 C3.50638429 15.20381448 1.31856917 16.45428722 -1 18 C-4.43955036 17.85363616 -6.49225742 17.33404117 -9.375 15.4375 C-11.26783796 12.59824307 -11.63375138 10.37696518 -11.44921875 6.97265625 C-10.09727332 1.03585241 -5.5929646 -0.97268949 0 0 Z " fill="#111111" transform="translate(86,78)"/>
<path d="M0 0 C1.17046875 0.03609375 2.3409375 0.0721875 3.546875 0.109375 C4.43890625 0.15578125 5.3309375 0.2021875 6.25 0.25 C6.39539953 3.66621788 6.48409725 7.08163991 6.5625 10.5 C6.60439453 11.46808594 6.64628906 12.43617187 6.68945312 13.43359375 C6.813223 20.61224665 6.813223 20.61224665 3.91796875 23.890625 C0.64770742 25.55687821 -1.12579845 25.85403359 -4.75 25.25 C-7.625 23.4375 -7.625 23.4375 -9.75 21.25 C-9.75 20.26 -9.75 19.27 -9.75 18.25 C-6.25765756 18.15021879 -3.15562852 18.47157062 0.25 19.25 C0.25 18.26 0.25 17.27 0.25 16.25 C-0.08 16.58 -0.41 16.91 -0.75 17.25 C-6.93615752 16.90632458 -6.93615752 16.90632458 -9.6875 14.6875 C-11.17866158 11.26659991 -11.6563734 7.9040408 -10.75 4.25 C-7.64913079 -0.06556493 -5.14127779 -0.20565111 0 0 Z " fill="#222222" transform="translate(20.75,103.75)"/>
<path d="M0 0 C5.33333333 0 10.66666667 0 16 0 C16.99 2.64 17.98 5.28 19 8 C20.32 5.36 21.64 2.72 23 0 C24.65 0 26.3 0 28 0 C27.40227336 3.43493576 26.52472216 6.44231496 25.15234375 9.64453125 C24.61577148 10.90620117 24.61577148 10.90620117 24.06835938 12.19335938 C23.50858398 13.48983398 23.50858398 13.48983398 22.9375 14.8125 C22.56044922 15.69615234 22.18339844 16.57980469 21.79492188 17.49023438 C20.86751446 19.66201124 19.93576366 21.83181367 19 24 C17.02 24 15.04 24 13 24 C13.350625 23.154375 13.70125 22.30875 14.0625 21.4375 C15.89059015 14.7345028 13.49782379 9.19025895 11 3 C10.67 3.66 10.34 4.32 10 5 C9.33484375 5.27585937 8.6696875 5.55171875 7.984375 5.8359375 C5.78073016 6.82051218 5.78073016 6.82051218 5.390625 9.1640625 C5.34421875 9.97617188 5.2978125 10.78828125 5.25 11.625 C5.19328125 12.44226563 5.1365625 13.25953125 5.078125 14.1015625 C5.05234375 14.72804688 5.0265625 15.35453125 5 16 C3.35 16 1.7 16 0 16 C0 10.72 0 5.44 0 0 Z " fill="#468EF5" transform="translate(164,104)"/>
<path d="M0 0 C11.5 -0.125 11.5 -0.125 14.171875 0.54296875 C16.26569462 1.19892677 16.26569462 1.19892677 19.5 0.375 C23 0 23 0 25.203125 1.05859375 C27 3 27 3 27.390625 6.13671875 C27.32101563 7.89435547 27.32101563 7.89435547 27.25 9.6875 C27.21390625 10.86699219 27.1778125 12.04648438 27.140625 13.26171875 C27.07101563 14.61716797 27.07101563 14.61716797 27 16 C25.35 16 23.7 16 22 16 C22 12.37 22 8.74 22 5 C20.35 5.33 18.7 5.66 17 6 C16.67 9.63 16.34 13.26 16 17 C14.35 17 12.7 17 11 17 C10.67 13.37 10.34 9.74 10 6 C8.35 5.67 6.7 5.34 5 5 C5 8.63 5 12.26 5 16 C3.35 16 1.7 16 0 16 C0 10.72 0 5.44 0 0 Z " fill="#202020" transform="translate(50,104)"/>
<path d="M0 0 C0.11608726 3.27053517 0.18720711 6.5405418 0.25 9.8125 C0.30027344 11.2056543 0.30027344 11.2056543 0.3515625 12.62695312 C0.36445312 13.51962891 0.37734375 14.41230469 0.390625 15.33203125 C0.41157227 16.15421143 0.43251953 16.9763916 0.45410156 17.82348633 C0 20 0 20 -1.87695312 21.7734375 C-4.39114323 23.22597787 -5.87236259 23.31445459 -8.75 23.1875 C-9.94882813 23.14689453 -9.94882813 23.14689453 -11.171875 23.10546875 C-11.77515625 23.07066406 -12.3784375 23.03585938 -13 23 C-13.33 22.01 -13.66 21.02 -14 20 C-13.67 19.34 -13.34 18.68 -13 18 C-11.88625 18.061875 -10.7725 18.12375 -9.625 18.1875 C-8.42875 18.125625 -7.2325 18.06375 -6 18 C-5.34 17.01 -4.68 16.02 -4 15 C-4.99 15.495 -4.99 15.495 -6 16 C-11.38420767 16.45823044 -11.38420767 16.45823044 -13.6640625 14.76171875 C-15.77559338 11.97721458 -15.48253161 9.54997883 -15.328125 6.1640625 C-15 4 -15 4 -13.6875 1.4375 C-9.33926401 -0.88830065 -4.82751646 -0.29963895 0 0 Z " fill="#0E0E0E" transform="translate(74,79)"/>
<path d="M0 0 C0.66 0 1.32 0 2 0 C3.65 0 5.3 0 7 0 C7 5.61 7 11.22 7 17 C5.35 17 3.7 17 2 17 C2 16.34 2 15.68 2 15 C1.01 15.66 0.02 16.32 -1 17 C-3.375 17.5 -3.375 17.5 -6 17 C-9.26193386 13.9555284 -10.73540072 12.29653646 -11.625 7.9375 C-10.24851 1.46799702 -6.29262365 -0.69918041 0 0 Z " fill="#292929" transform="translate(40,104)"/>
<path d="M0 0 C1.65 0 3.3 0 5 0 C5 7.26 5 14.52 5 22 C3.02 22 1.04 22 -1 22 C-1.86625 22.2475 -2.7325 22.495 -3.625 22.75 C-6 23 -6 23 -8.3125 21.6875 C-10.88186168 17.59555363 -10.77186795 13.70137749 -10 9 C-8.3125 6.3125 -8.3125 6.3125 -6 5 C-3.25 5.25 -3.25 5.25 -1 6 C-0.67 4.02 -0.34 2.04 0 0 Z " fill="#0D0D0D" transform="translate(118,73)"/>
<path d="M0 0 C3.38677089 2.45000447 4.78698584 3.86392446 5.5625 8 C4.87642343 11.65907504 3.57265686 13.35167676 1 16 C-1.88861709 17.44430855 -3.79647701 17.37688506 -7 17 C-9.87459336 15.00028288 -11.62907801 13.51060972 -12.484375 10.02734375 C-12.73357225 6.32399572 -12.29743405 4.36052612 -9.9375 1.5 C-6.22693494 -0.39475662 -4.11629392 -0.66154724 0 0 Z " fill="#3E89F5" transform="translate(157,104)"/>
<path d="M0 0 C1.65 0 3.3 0 5 0 C5 2.31 5 4.62 5 7 C5.66 7 6.32 7 7 7 C7 6.34 7 5.68 7 5 C10.44655739 4.6866766 12.33628423 4.51643565 15.1875 6.59375 C17.60016414 9.79676963 17.40848829 11.78779278 17.25 15.75 C17.21390625 16.92046875 17.1778125 18.0909375 17.140625 19.296875 C17.07101563 20.63492188 17.07101563 20.63492188 17 22 C15.35 22 13.7 22 12 22 C11.67 17.71 11.34 13.42 11 9 C9.68 9.33 8.36 9.66 7 10 C6.67 13.96 6.34 17.92 6 22 C4.02 22 2.04 22 0 22 C0 14.74 0 7.48 0 0 Z " fill="#5195F7" transform="translate(22,73)"/>
<path d="M0 0 C1.65 0 3.3 0 5 0 C5 1.98 5 3.96 5 6 C5.66 5.67 6.32 5.34 7 5 C10.67179103 4.52107074 12.35633954 4.52572387 15.375 6.75 C17.85354783 11.70709566 17.31247714 16.55768977 17 22 C15.02 22 13.04 22 11 22 C10.67 18.04 10.34 14.08 10 10 C8.68 10.33 7.36 10.66 6 11 C5.67 14.3 5.34 17.6 5 21 C3.35 21 1.7 21 0 21 C0 14.07 0 7.14 0 0 Z " fill="#5396F6" transform="translate(109,99)"/>
<path d="M0 0 C4.40324127 0.78629308 5.87468349 2.04502294 8.5 5.625 C8.5 7.275 8.5 8.925 8.5 10.625 C4.87 10.625 1.24 10.625 -2.5 10.625 C-2.17 11.285 -1.84 11.945 -1.5 12.625 C2.955 12.13 2.955 12.13 7.5 11.625 C5.5 15.625 5.5 15.625 3.5 17.625 C0.1875 18.125 0.1875 18.125 -3.5 17.625 C-6.72341676 14.74449992 -8.25697586 12.81581827 -9.125 8.5625 C-7.99154252 3.23524985 -5.29142041 0.9448965 0 0 Z " fill="#4D4D4D" transform="translate(87.5,103.375)"/>
<path d="M0 0 C2.4375 1.125 2.4375 1.125 4 3 C4.25 6.1875 4.25 6.1875 4 9 C0.37 9 -3.26 9 -7 9 C-6.01 10.485 -6.01 10.485 -5 12 C-0.545 11.505 -0.545 11.505 4 11 C2 15 2 15 -1 17 C-3.875 17.5 -3.875 17.5 -7 17 C-10.16041435 14.11440429 -11.76419058 12.15546616 -12.625 7.9375 C-11.14852226 0.99805464 -6.65084831 -0.96739612 0 0 Z " fill="#3A87F4" transform="translate(139,104)"/>
<path d="M0 0 C2.9375 2.25 2.9375 2.25 5 5 C5 6.32 5 7.64 5 9 C1.37 9 -2.26 9 -6 9 C-5.67 9.99 -5.34 10.98 -5 12 C-0.545 11.505 -0.545 11.505 4 11 C3 15 3 15 0 17 C-3.75140146 17.22689928 -7.01790073 16.76726505 -10 14.4375 C-11.45225615 10.89762562 -11.67913753 7.7661263 -11 4 C-8.16650967 -0.53358453 -5.10426635 -0.80593679 0 0 Z " fill="#3E8AF4" transform="translate(52,78)"/>
<path d="M0 0 C1.65 0 3.3 0 5 0 C5 1.32 5 2.64 5 4 C5.99 4 6.98 4 8 4 C8 5.65 8 7.3 8 9 C7.01 9 6.02 9 5 9 C5 11.31 5 13.62 5 16 C5.99 16 6.98 16 8 16 C8 17.65 8 19.3 8 21 C3.50798722 21.36421725 3.50798722 21.36421725 1.34375 19.8125 C-0.46278055 17.37578437 -0.30430752 15.81055979 -0.1875 12.8125 C-0.16042969 11.91144531 -0.13335937 11.01039062 -0.10546875 10.08203125 C-0.07066406 9.39496094 -0.03585937 8.70789063 0 8 C-0.66 8 -1.32 8 -2 8 C-2 6.68 -2 5.36 -2 4 C-1.34 4 -0.68 4 0 4 C0 2.68 0 1.36 0 0 Z " fill="#3B87F5" transform="translate(12,74)"/>
<path d="M0 0 C0.33 0 0.66 0 1 0 C1.14546783 3.24952748 1.2341168 6.49821713 1.3125 9.75 C1.35439453 10.67039062 1.39628906 11.59078125 1.43945312 12.5390625 C1.56319875 19.36982116 1.56319875 19.36982116 -1.33203125 22.609375 C-4.60322833 24.31442062 -6.35884189 24.60685968 -10 24 C-12.875 22.1875 -12.875 22.1875 -15 20 C-15 19.01 -15 18.02 -15 17 C-11.50765756 16.90021879 -8.40562852 17.22157062 -5 18 C-4.34 16.35 -3.68 14.7 -3 13 C-3.66 13 -4.32 13 -5 13 C-4.38722388 10.03824877 -3.74627478 8.61941217 -2 6 C-1.29835358 4.01200182 -0.62627128 2.01301483 0 0 Z " fill="#232323" transform="translate(26,105)"/>
<path d="M0 0 C1.65 0 3.3 0 5 0 C5 1.32 5 2.64 5 4 C5.99 4 6.98 4 8 4 C8 5.65 8 7.3 8 9 C7.01 9 6.02 9 5 9 C5 11.31 5 13.62 5 16 C5.99 16 6.98 16 8 16 C8 17.32 8 18.64 8 20 C5.66705225 20.04241723 3.33297433 20.04092937 1 20 C0 19 0 19 -0.09765625 16.49609375 C-0.08605469 15.48675781 -0.07445313 14.47742188 -0.0625 13.4375 C-0.05347656 12.42558594 -0.04445313 11.41367188 -0.03515625 10.37109375 C-0.02355469 9.58863281 -0.01195313 8.80617188 0 8 C-0.66 8 -1.32 8 -2 8 C-2 6.68 -2 5.36 -2 4 C-1.34 4 -0.68 4 0 4 C0 2.68 0 1.36 0 0 Z " fill="#3886F5" transform="translate(99,100)"/>
<path d="M0 0 C0.66 0 1.32 0 2 0 C2.99 0.33 3.98 0.66 5 1 C4.74445946 2.46109063 4.46999628 3.91888096 4.1875 5.375 C4.03667969 6.18710938 3.88585938 6.99921875 3.73046875 7.8359375 C3 10 3 10 0 12 C-3.38693192 11.65262237 -6.03721286 10.64599285 -9 9 C-9.66 9.66 -10.32 10.32 -11 11 C-11.46707789 6.98313013 -11.32150834 5.43498188 -8.875 2.125 C-5.53226973 -0.34571368 -4.05434138 -0.45048238 0 0 Z " fill="#2A2A2A" transform="translate(40,104)"/>
<path d="M0 0 C1.65 0 3.3 0 5 0 C5 6.93 5 13.86 5 21 C3.35 21 1.7 21 0 21 C0 14.07 0 7.14 0 0 Z " fill="#3D89F5" transform="translate(109,99)"/>
<path d="M0 0 C3.69230769 0.69230769 3.69230769 0.69230769 5 2 C4.91062197 3.52519276 4.75462854 5.04681929 4.5625 6.5625 C4.46066406 7.38878906 4.35882813 8.21507813 4.25390625 9.06640625 C4.17011719 9.70449219 4.08632812 10.34257813 4 11 C4.66 11.33 5.32 11.66 6 12 C3.11138291 13.44430855 1.20352299 13.37688506 -2 13 C-4.875 10.5 -4.875 10.5 -7 8 C-6.38125 7.95875 -5.7625 7.9175 -5.125 7.875 C-4.42375 7.58625 -3.7225 7.2975 -3 7 C-1.76242123 4.03739474 -1.76242123 4.03739474 -1 1 C-0.67 0.67 -0.34 0.34 0 0 Z " fill="#4D94F6" transform="translate(152,108)"/>
<path d="M0 0 C0.33 0.66 0.66 1.32 1 2 C3.97851562 1.90234375 3.97851562 1.90234375 6.95703125 1.8046875 C9 2 9 2 12 4 C8.37 4 4.74 4 1 4 C1.99 5.485 1.99 5.485 3 7 C7.455 6.505 7.455 6.505 12 6 C10 10 10 10 8 12 C4.625 12.4375 4.625 12.4375 1 12 C-1.5 9.875 -1.5 9.875 -3 7 C-2.875 3.75 -2.875 3.75 -2 1 C-1.34 0.67 -0.68 0.34 0 0 Z " fill="#191919" transform="translate(83,109)"/>
<path d="M0 0 C2 2 2 2 2.1953125 5.0390625 C2.17210938 6.22242187 2.14890625 7.40578125 2.125 8.625 C2.10695313 9.81351563 2.08890625 11.00203125 2.0703125 12.2265625 C2.04710938 13.14179687 2.02390625 14.05703125 2 15 C0.35 15 -1.3 15 -3 15 C-3.33 11.37 -3.66 7.74 -4 4 C-6.475 3.01 -6.475 3.01 -9 2 C-9 1.34 -9 0.68 -9 0 C-5.88135455 -1.55932272 -3.33704665 -0.65549131 0 0 Z " fill="#1D1D1D" transform="translate(75,105)"/>
<path d="M0 0 C1.629375 0.12375 3.25875 0.2475 4.9375 0.375 C5.85402344 0.44460937 6.77054688 0.51421875 7.71484375 0.5859375 C8.84599609 0.79089844 8.84599609 0.79089844 10 1 C10.33 1.66 10.66 2.32 11 3 C9.35 3.33 7.7 3.66 6 4 C5.67 7.63 5.34 11.26 5 15 C3.35 15 1.7 15 0 15 C0 10.05 0 5.1 0 0 Z " fill="#0F0F0F" transform="translate(50,105)"/>
<path d="M0 0 C0.33 0 0.66 0 1 0 C1 5.61 1 11.22 1 17 C2.65 17 4.3 17 6 17 C6 13.7 6 10.4 6 7 C6.33 7 6.66 7 7 7 C7 10.63 7 14.26 7 18 C2.71 18 -1.58 18 -6 18 C-6 17.67 -6 17.34 -6 17 C-4.35 17 -2.7 17 -1 17 C-1 15.68 -1 14.36 -1 13 C-1.99 13 -2.98 13 -4 13 C-4 10.69 -4 8.38 -4 6 C-3.01 6 -2.02 6 -1 6 C-1.020625 5.195625 -1.04125 4.39125 -1.0625 3.5625 C-1 1 -1 1 0 0 Z " fill="#E7F0FA" transform="translate(108,103)"/>
<path d="M0 0 C3.625 0.5 3.625 0.5 6.5625 2.75 C8.625 5.5 8.625 5.5 8.625 9.5 C4.665 9.5 0.705 9.5 -3.375 9.5 C0.625 7.5 0.625 7.5 3.625 7.5 C2.23304085 4.7160817 0.46924221 4.52101003 -2.375 3.5 C-3.035 4.16 -3.695 4.82 -4.375 5.5 C-5.035 4.84 -5.695 4.18 -6.375 3.5 C-4.43827808 0.76580435 -3.38982926 0.50219693 0 0 Z " fill="#3D89F4" transform="translate(48.375,77.5)"/>
<path d="M0 0 C-0.639375 0.28875 -1.27875 0.5775 -1.9375 0.875 C-4.15206079 1.82823451 -4.15206079 1.82823451 -5 4 C-3.68 4.33 -2.36 4.66 -1 5 C-1 5.66 -1 6.32 -1 7 C-2.98 7 -4.96 7 -7 7 C-7.33 7.66 -7.66 8.32 -8 9 C-8.66 9 -9.32 9 -10 9 C-10.33 9.99 -10.66 10.98 -11 12 C-12 11 -12 11 -12.375 8.25 C-12 5 -12 5 -9.9375 2.125 C-6.34962488 -0.47048413 -4.3322929 -0.4247346 0 0 Z " fill="#4A91F4" transform="translate(139,104)"/>
<path d="M0 0 C2.31 0.33 4.62 0.66 7 1 C6.01 1.33 5.02 1.66 4 2 C4 4.31 4 6.62 4 9 C4.99 9 5.98 9 7 9 C7 10.65 7 12.3 7 14 C4.2351335 14.22417836 2.53722513 14.32233508 0.125 12.875 C-1.55290631 10.07848948 -0.74875648 8.06309468 0 5 C0.66 5 1.32 5 2 5 C2.33 4.01 2.66 3.02 3 2 C2.01 2 1.02 2 0 2 C0 1.34 0 0.68 0 0 Z " fill="#4C92F5" transform="translate(13,81)"/>
<path d="M0 0 C1.89510699 -0.08160748 3.79124504 -0.13946459 5.6875 -0.1875 C6.74324219 -0.22230469 7.79898438 -0.25710937 8.88671875 -0.29296875 C12.38924582 0.03662915 14.14075649 1.01441423 17 3 C18.32608822 3.68096422 19.65686601 4.35330586 21 5 C15.77254141 6.2063366 11.23471686 5.75612577 6 5 C6.99 4.34 7.98 3.68 9 3 C4.545 2.01 4.545 2.01 0 1 C0 0.67 0 0.34 0 0 Z " fill="#323232" transform="translate(50,104)"/>
<path d="M0 0 C3.375 0.3125 3.375 0.3125 7 1 C9 4 9 4 9 9 C3.06 9.495 3.06 9.495 -3 10 C-3 9.34 -3 8.68 -3 8 C-0.36 7.67 2.28 7.34 5 7 C4.175 6.401875 3.35 5.80375 2.5 5.1875 C1.675 4.465625 0.85 3.74375 0 3 C0 2.01 0 1.02 0 0 Z " fill="#3D3D3D" transform="translate(87,105)"/>
<path d="M0 0 C0.6875 1.6875 0.6875 1.6875 1 4 C-0.64076492 7.44560634 -1.78512442 8.85674962 -5 11 C-7.1875 10.625 -7.1875 10.625 -9 10 C-8.67 8.68 -8.34 7.36 -8 6 C-7.34 6 -6.68 6 -6 6 C-5.67 5.01 -5.34 4.02 -5 3 C-3.35 2.67 -1.7 2.34 0 2 C0 1.34 0 0.68 0 0 Z " fill="#151515" transform="translate(106,85)"/>
<path d="M0 0 C0.33 0 0.66 0 1 0 C1 4.95 1 9.9 1 15 C0.34 15 -0.32 15 -1 15 C-1.66 15.66 -2.32 16.32 -3 17 C-3 15.68 -3 14.36 -3 13 C-3.66 13 -4.32 13 -5 13 C-4.38722388 10.03824877 -3.74627478 8.61941217 -2 6 C-1.29835358 4.01200182 -0.62627128 2.01301483 0 0 Z " fill="#101010" transform="translate(26,105)"/>
<path d="M0 0 C1.67542976 0.28604898 3.34385343 0.61781233 5 1 C5.125 3.875 5.125 3.875 5 7 C4.34 7.66 3.68 8.32 3 9 C0.875 8.625 0.875 8.625 -1 8 C-1.04241723 5.66705225 -1.04092937 3.33297433 -1 1 C-0.67 0.67 -0.34 0.34 0 0 Z " fill="#E3E3E3" transform="translate(65,83)"/>
<path d="M0 0 C3.53571429 0.53571429 3.53571429 0.53571429 5 2 C5.04063832 3.66617115 5.042721 5.33388095 5 7 C3.0085944 7.38133299 1.00720923 7.71325582 -1 8 C-2 7 -2 7 -2.1875 4.5625 C-2 2 -2 2 0 0 Z " fill="#F5F8F9" transform="translate(152,108)"/>
<path d="M0 0 C-0.33 4.29 -0.66 8.58 -1 13 C-1.33 13 -1.66 13 -2 13 C-2.08636719 12.37351562 -2.17273438 11.74703125 -2.26171875 11.1015625 C-2.68626709 8.63217125 -3.14272416 6.35643158 -4 4 C-6.47014472 2.32386813 -6.47014472 2.32386813 -9 2 C-9 1.34 -9 0.68 -9 0 C-5.93109813 -1.53445094 -3.29905734 -0.54984289 0 0 Z " fill="#151515" transform="translate(75,105)"/>
<path d="M0 0 C1.65 0 3.3 0 5 0 C5 1.32 5 2.64 5 4 C5.99 4 6.98 4 8 4 C8 5.65 8 7.3 8 9 C7.01 9 6.02 9 5 9 C5 11.31 5 13.62 5 16 C4.67 16 4.34 16 4 16 C4 13.36 4 10.72 4 8 C4.99 8 5.98 8 7 8 C5.0745356 5.7763932 5.0745356 5.7763932 2 5 C2.33 5.99 2.66 6.98 3 8 C2.34 8 1.68 8 1 8 C0.67 5.36 0.34 2.72 0 0 Z " fill="#5B9CF7" transform="translate(99,100)"/>
<path d="M0 0 C1.67542976 0.28604898 3.34385343 0.61781233 5 1 C5 2.98 5 4.96 5 7 C3.02 7.99 3.02 7.99 1 9 C-1 7 -1 7 -1.1875 3.9375 C-1 1 -1 1 0 0 Z " fill="#F3F3F3" transform="translate(113,83)"/>
<path d="M0 0 C2.5654594 2.5654594 2.54046087 4.47686668 3 8 C2.01 8 1.02 8 0 8 C0 7.34 0 6.68 0 6 C-2.97 6.66 -5.94 7.32 -9 8 C-9.66 6.68 -10.32 5.36 -11 4 C-7.37 4 -3.74 4 0 4 C0 2.68 0 1.36 0 0 Z " fill="#C8DDF9" transform="translate(143,109)"/>
<path d="M0 0 C2.52055505 3.78083258 2.46702178 7.61718019 2 12 C1 14.5 1 14.5 0 16 C0 14.68 0 13.36 0 12 C-0.99 12 -1.98 12 -3 12 C-3 9.69 -3 7.38 -3 5 C-2.01 5 -1.02 5 0 5 C0 3.35 0 1.7 0 0 Z " fill="#E4EFFB" transform="translate(20,78)"/>
<path d="M0 0 C1.66611905 -0.042721 3.33382885 -0.04063832 5 0 C6 1 6 1 6.0625 3.5625 C6.041875 4.366875 6.02125 5.17125 6 6 C3.625 6.625 3.625 6.625 1 7 C0.34 6.34 -0.32 5.68 -1 5 C-0.625 2.375 -0.625 2.375 0 0 Z " fill="#EFEFEF" transform="translate(16,109)"/>
<path d="M0 0 C-0.3125 1.875 -0.3125 1.875 -1 4 C-4.22791555 6.1519437 -5.28400809 6.20086443 -9 6 C-9.33 4.68 -9.66 3.36 -10 2 C-6.49223216 0.39644899 -3.85645121 -0.22036864 0 0 Z " fill="#478FF5" transform="translate(56,89)"/>
<path d="M0 0 C4.3322929 -0.4247346 6.34962488 -0.47048413 9.9375 2.125 C12.30954571 5.43148796 12.46233492 7.0239197 12 11 C10.68 10.67 9.36 10.34 8 10 C8.0825 9.236875 8.165 8.47375 8.25 7.6875 C8.28629314 4.90881878 8.28629314 4.90881878 6.25 3.3125 C4.19882582 2.11598173 2.15368877 0.99992693 0 0 Z " fill="#4992F5" transform="translate(150,104)"/>
<path d="M0 0 C1.65 0 3.3 0 5 0 C4.745504 1.48206495 4.47088238 2.96068615 4.1875 4.4375 C4.03667969 5.26121094 3.88585938 6.08492188 3.73046875 6.93359375 C3.36888672 7.95646484 3.36888672 7.95646484 3 9 C2.01 9.33 1.02 9.66 0 10 C-0.12375 9.071875 -0.12375 9.071875 -0.25 8.125 C-0.81258459 5.81562433 -0.81258459 5.81562433 -3.0625 4.75 C-3.701875 4.5025 -4.34125 4.255 -5 4 C-4.360625 3.71125 -3.72125 3.4225 -3.0625 3.125 C-0.84793921 2.17176549 -0.84793921 2.17176549 0 0 Z " fill="#2A2A2A" transform="translate(22,104)"/>
<path d="M0 0 C1.32 0 2.64 0 4 0 C5.26237731 2.52475462 5.09856404 4.31200466 5.0625 7.125 C5.05347656 8.03507812 5.04445313 8.94515625 5.03515625 9.8828125 C5.02355469 10.58148438 5.01195312 11.28015625 5 12 C2 8.25 2 8.25 2 6 C1.01 6.33 0.02 6.66 -1 7 C-1.04254356 5.00045254 -1.04080783 2.99958364 -1 1 C-0.67 0.67 -0.34 0.34 0 0 Z " fill="#E1EEFA" transform="translate(29,82)"/>
<path d="M0 0 C1.98 0 3.96 0 6 0 C6 1.98 6 3.96 6 6 C4.34385343 6.38218767 2.67542976 6.71395102 1 7 C0 6 0 6 -0.0625 2.9375 C-0.041875 1.968125 -0.02125 0.99875 0 0 Z " fill="#F5F5F5" transform="translate(35,109)"/>
<path d="M0 0 C0.99 0.103125 1.98 0.20625 3 0.3125 C3.66 1.3025 4.32 2.2925 5 3.3125 C-0.625 6.3125 -0.625 6.3125 -4 6.3125 C-4.625 4.4375 -4.625 4.4375 -5 2.3125 C-3 0.3125 -3 0.3125 0 0 Z " fill="#161616" transform="translate(17,103.6875)"/>
<path d="M0 0 C0.66 0.33 1.32 0.66 2 1 C1.42655063 3.86724686 1.1385485 4.8614515 -1 7 C-1 6.34 -1 5.68 -1 5 C-3.97 5.66 -6.94 6.32 -10 7 C-10.33 5.68 -10.66 4.36 -11 3 C-7.37 3 -3.74 3 0 3 C0 2.01 0 1.02 0 0 Z " fill="#BBD1F1" transform="translate(57,84)"/>
<path d="M0 0 C0.99 0 1.98 0 3 0 C3 0.99 3 1.98 3 3 C3.99 3 4.98 3 6 3 C5 6 5 6 3 8 C2.01 8 1.02 8 0 8 C0 7.34 0 6.68 0 6 C-0.66 6 -1.32 6 -2 6 C-2 4.68 -2 3.36 -2 2 C-1.34 2 -0.68 2 0 2 C0 1.34 0 0.68 0 0 Z " fill="#A0A0A0" transform="translate(97,83)"/>
<path d="M0 0 C3.27779873 3.27779873 3.40494034 3.8360813 3.6875 8.1875 C3.75324219 9.08855469 3.81898438 9.98960938 3.88671875 10.91796875 C3.92410156 11.60503906 3.96148437 12.29210937 4 13 C2.68 13 1.36 13 0 13 C0 8.71 0 4.42 0 0 Z " fill="#3987F6" transform="translate(164,107)"/>
<path d="M0 0 C0.33 0.99 0.66 1.98 1 3 C1.66 3 2.32 3 3 3 C3.33 2.34 3.66 1.68 4 1 C4.45375 1.78375 4.9075 2.5675 5.375 3.375 C6.88428742 6.03698031 6.88428742 6.03698031 9 8 C6.08517222 8.80967438 4.53886783 9.21845993 1.6875 8.0625 C1.130625 7.711875 0.57375 7.36125 0 7 C0 4.69 0 2.38 0 0 Z " fill="#131313" transform="translate(30,110)"/>
<path d="M0 0 C0.66 0.33 1.32 0.66 2 1 C1.67 4.3 1.34 7.6 1 11 C-0.32 11 -1.64 11 -3 11 C-3 7.7 -3 4.4 -3 1 C-2.34 1.66 -1.68 2.32 -1 3 C-0.67 2.01 -0.34 1.02 0 0 Z " fill="#3785F6" transform="translate(26,83)"/>
<path d="M0 0 C2.1385485 2.1385485 2.42655063 3.13275314 3 6 C3.66 5.67 4.32 5.34 5 5 C5 6.65 5 8.3 5 10 C3.35 10.66 1.7 11.32 0 12 C-1.03159626 8.90521121 -0.97482862 7.47368607 -0.5625 4.3125 C-0.46066406 3.50425781 -0.35882813 2.69601563 -0.25390625 1.86328125 C-0.17011719 1.24839844 -0.08632812 0.63351563 0 0 Z " fill="#4B92F8" transform="translate(180,106)"/>
<path d="M0 0 C0.33 0.66 0.66 1.32 1 2 C3.97851562 1.90234375 3.97851562 1.90234375 6.95703125 1.8046875 C9 2 9 2 12 4 C8.37 4 4.74 4 1 4 C1 4.66 1 5.32 1 6 C0.01 6.33 -0.98 6.66 -2 7 C-2 5.02 -2 3.04 -2 1 C-1.34 0.67 -0.68 0.34 0 0 Z " fill="#0D0D0D" transform="translate(83,109)"/>
<path d="M0 0 C-0.639375 0.28875 -1.27875 0.5775 -1.9375 0.875 C-4.15206079 1.82823451 -4.15206079 1.82823451 -5 4 C-3.68 4.33 -2.36 4.66 -1 5 C-1 5.66 -1 6.32 -1 7 C-2.98 7 -4.96 7 -7 7 C-7 5.35 -7 3.7 -7 2 C-7.66 1.67 -8.32 1.34 -9 1 C-6.04335481 -0.4783226 -3.25770263 -0.06032783 0 0 Z " fill="#87B7F8" transform="translate(139,104)"/>
<path d="M0 0 C3.465 1.485 3.465 1.485 7 3 C7 3.66 7 4.32 7 5 C4.69 5.33 2.38 5.66 0 6 C0 5.34 0 4.68 0 4 C-1.32 4 -2.64 4 -4 4 C-4 3.34 -4 2.68 -4 2 C-3.01 2 -2.02 2 -1 2 C-0.67 1.34 -0.34 0.68 0 0 Z " fill="#8DB9F9" transform="translate(45,80)"/>
<path d="M0 0 C0 2.97 0 5.94 0 9 C-1.32 9 -2.64 9 -4 9 C-4 6.36 -4 3.72 -4 1 C-1 0 -1 0 0 0 Z " fill="#0F0F0F" transform="translate(54,111)"/>
<path d="M0 0 C2.875 -0.1875 2.875 -0.1875 6 0 C6.66 0.99 7.32 1.98 8 3 C7.360625 3.12375 6.72125 3.2475 6.0625 3.375 C5.381875 3.58125 4.70125 3.7875 4 4 C3.67 4.66 3.34 5.32 3 6 C2.67 5.34 2.34 4.68 2 4 C1.01 3.67 0.02 3.34 -1 3 C-0.67 2.01 -0.34 1.02 0 0 Z " fill="#4890F4" transform="translate(135,105)"/>
<path d="M0 0 C0.66 0 1.32 0 2 0 C2 0.99 2 1.98 2 3 C2.99 3 3.98 3 5 3 C5 3.66 5 4.32 5 5 C4.01 5 3.02 5 2 5 C2 5.99 2 6.98 2 8 C1.34 8 0.68 8 0 8 C0 7.01 0 6.02 0 5 C-0.99 5 -1.98 5 -3 5 C-3 4.34 -3 3.68 -3 3 C-2.01 3 -1.02 3 0 3 C0 2.01 0 1.02 0 0 Z " fill="#F8F8F8" transform="translate(82,83)"/>
<path d="M0 0 C0.99 0 1.98 0 3 0 C3 0.66 3 1.32 3 2 C3.66 2 4.32 2 5 2 C4.67 3.32 4.34 4.64 4 6 C3.67 5.34 3.34 4.68 3 4 C2.67 4.33 2.34 4.66 2 5 C0.33382885 5.04063832 -1.33388095 5.042721 -3 5 C-3.33 4.34 -3.66 3.68 -4 3 C-3.01 2.67 -2.02 2.34 -1 2 C-0.67 1.34 -0.34 0.68 0 0 Z " fill="#2E2E2E" transform="translate(18,116)"/>
<path d="M0 0 C1.65 0 3.3 0 5 0 C3.63016497 3.16115776 3.0109362 3.9927092 0 6 C-3.1875 6.125 -3.1875 6.125 -6 6 C-3.66785852 4.79371992 -1.50357861 3.8345262 1 3 C0.67 2.01 0.34 1.02 0 0 Z " fill="#4F95F7" transform="translate(138,115)"/>
<path d="M0 0 C1.65 0.99 3.3 1.98 5 3 C4.67 4.32 4.34 5.64 4 7 C3.01 6.67 2.02 6.34 1 6 C0.34 6.66 -0.32 7.32 -1 8 C-1.125 2.25 -1.125 2.25 0 0 Z " fill="#404040" transform="translate(30,107)"/>
<path d="M0 0 C2.24864865 4.4972973 2.24864865 4.4972973 2.125 8.0625 C2.05161236 10.37421076 2 12.68712466 2 15 C1.34 16.32 0.68 17.64 0 19 C0 12.73 0 6.46 0 0 Z " fill="#E4E4E4" transform="translate(74,79)"/>
<path d="M0 0 C0 1.32 0 2.64 0 4 C-2.31 4 -4.62 4 -7 4 C-7.33 3.34 -7.66 2.68 -8 2 C-5.09399739 0.74335022 -3.20395416 0 0 0 Z " fill="#468FF6" transform="translate(107,116)"/>
<path d="M0 0 C1.65 0 3.3 0 5 0 C3.25 3.875 3.25 3.875 1 5 C-1.125 4.0625 -1.125 4.0625 -3 3 C-2.34 3 -1.68 3 -1 3 C-0.67 2.01 -0.34 1.02 0 0 Z " fill="#191919" transform="translate(90,115)"/>
<path d="M0 0 C3.69230769 0.69230769 3.69230769 0.69230769 5 2 C5.04063832 3.66617115 5.042721 5.33388095 5 7 C4.67 5.68 4.34 4.36 4 3 C2.68 3 1.36 3 0 3 C0 3.66 0 4.32 0 5 C-0.66 5 -1.32 5 -2 5 C-1.125 1.125 -1.125 1.125 0 0 Z " fill="#D3E5FA" transform="translate(152,108)"/>
<path d="M0 0 C1.32 0 2.64 0 4 0 C4 0.66 4 1.32 4 2 C5.32 2.33 6.64 2.66 8 3 C2.375 5.125 2.375 5.125 -1 4 C-0.67 2.68 -0.34 1.36 0 0 Z " fill="#111111" transform="translate(32,105)"/>
<path d="M0 0 C3 1 3 1 4 2 C4.07205511 3.68608966 4.08386068 5.37500659 4.0625 7.0625 C4.05347656 7.98160156 4.04445313 8.90070313 4.03515625 9.84765625 C4.02355469 10.55792969 4.01195312 11.26820312 4 12 C3.67 12 3.34 12 3 12 C2.67 9.36 2.34 6.72 2 4 C1.01 4 0.02 4 -1 4 C-0.67 2.68 -0.34 1.36 0 0 Z " fill="#272727" transform="translate(51,108)"/>
<path d="M0 0 C0.66 0 1.32 0 2 0 C2.66 1.65 3.32 3.3 4 5 C2.68 5.33 1.36 5.66 0 6 C-0.38218767 4.34385343 -0.71395102 2.67542976 -1 1 C-0.67 0.67 -0.34 0.34 0 0 Z " fill="#040404" transform="translate(95,89)"/>
<path d="M0 0 C0.33 0.66 0.66 1.32 1 2 C1.66 2 2.32 2 3 2 C3.33 1.34 3.66 0.68 4 0 C4.99 0 5.98 0 7 0 C7 1.32 7 2.64 7 4 C5.02 4 3.04 4 1 4 C0.67 2.68 0.34 1.36 0 0 Z " fill="#3988F3" transform="translate(167,105)"/>
<path d="M0 0 C1.32 0.33 2.64 0.66 4 1 C3.6875 2.9375 3.6875 2.9375 3 5 C2.01 5.33 1.02 5.66 0 6 C0 4.02 0 2.04 0 0 Z " fill="#FAFCFA" transform="translate(17,83)"/>
<path d="M0 0 C0.33 1.32 0.66 2.64 1 4 C-0.65 4.33 -2.3 4.66 -4 5 C-4.33 4.01 -4.66 3.02 -5 2 C-3.35 1.34 -1.7 0.68 0 0 Z " fill="#F5F5F5" transform="translate(21,119)"/>
<path d="M0 0 C1.65 0 3.3 0 5 0 C5 1.32 5 2.64 5 4 C5.99 4.33 6.98 4.66 8 5 C7.67 5.66 7.34 6.32 7 7 C6.01 7 5.02 7 4 7 C3 4 3 4 4 1 C2.68 0.67 1.36 0.34 0 0 Z " fill="#4F94F4" transform="translate(12,74)"/>
<path d="M0 0 C3 1 3 1 5 2 C5 2.66 5 3.32 5 4 C2.69 4 0.38 4 -2 4 C-2 3.34 -2 2.68 -2 2 C-1.34 2 -0.68 2 0 2 C0 1.34 0 0.68 0 0 Z " fill="#313131" transform="translate(86,117)"/>
<path d="M0 0 C3.63 0 7.26 0 11 0 C10.01 1.485 10.01 1.485 9 3 C4.545 2.01 4.545 2.01 0 1 C0 0.67 0 0.34 0 0 Z " fill="#232323" transform="translate(50,104)"/>
<path d="M0 0 C0 1.65 0 3.3 0 5 C-1.65 5 -3.3 5 -5 5 C-2.74193548 0 -2.74193548 0 0 0 Z " fill="#3D8AF6" transform="translate(182,123)"/>
<path d="M0 0 C-0.66 1.32 -1.32 2.64 -2 4 C-3.32 4 -4.64 4 -6 4 C-6 3.01 -6 2.02 -6 1 C-3.92446352 0.4465236 -2.15634036 0 0 0 Z " fill="#D0D0D0" transform="translate(70,94)"/>
<path d="M0 0 C2.97 0 5.94 0 9 0 C6.07735566 1.46132217 4.07536854 2.34099246 1 3 C0.67 2.01 0.34 1.02 0 0 Z " fill="#E9F2FC" transform="translate(46,88)"/>
</svg>
