<svg xmlns="http://www.w3.org/2000/svg" viewBox="0 0 4028 1506"><path d="M277.65 24.73C316.66 9.92 358.29 2.65 399.92 1.3c7.1.42 14.14-2.08 21.16-.2 67.02 1.29 134.43 17 193.22 49.72 59.85 30.12 108.95 78.71 145.79 134.19 33.42 50.84 57.31 108.46 66.3 168.8 3.72 24.25 3.89 48.84 3.47 73.3-2.08 68.95-21.08 137.43-55.68 197.16-28.04 48.61-66.1 91.38-111.04 124.98-25.91 18.84-61.74 23.66-91.31 10.91-8.35-3.21-15.34-9.12-20.79-16.11L396.16 568.78c-2.89-3.33-6.01-6.47-8.61-10.03 37.57 6.27 77.24-5.46 106.24-29.91 12.91-10.68 23.43-24.1 31.39-38.8 18.76-35.74 18.57-80.22 1.32-116.49-12.06-26.19-36.53-44.71-62.82-55.17-26.25-10.34-55.06-13.73-83.07-10.93-33.83 3.43-66.15 17.48-92.89 38.3-39.32 30.68-67.42 74.49-82.17 121.89-7 22.81-10.24 46.6-12.37 70.3-5.68 68.19 6.82 136.88 29.98 200.94 7.91 22.98 19.29 44.77 33.93 64.18-11.71-4.51-22.81-10.44-33.91-16.26-63.27-34.24-118.31-84.1-157.07-144.82-19.95-31.24-35.55-65.25-46.51-100.65C2.92 487.02-2.23 429.37 3.26 372.88c4.15-41.83 14.42-83.12 30.98-121.78 17.14-39.83 41.41-76.37 69.82-109.03 39.74-45.3 88.86-83 144.65-106.28 9.5-4.08 19.38-7.16 28.94-11.06zM317.11 485c2.15-8.37 3.59-16.9 5.51-25.31 1.72 17.07 5.1 33.96 10.51 50.26 12.37 38.64 32.07 74.41 45.31 112.73 7.35 20.17 9.92 42 8.21 63.36-1.38 16.78-6.27 33.12-13.34 48.35-12.08 26.58-29.58 50.41-49.6 71.53-21.24-22.98-41.01-47.89-54.03-76.55-9.16-20.02-14.72-41.94-14.14-64.04.44-12.6 2.67-25.14 6.88-37.02 2.42-7.43 6.32-14.25 9.52-21.34 18.61-39.21 34.96-79.71 45.17-121.97z" fill="#d2ac67"/><path d="M2230.49 135.62c11.67-1.35 24.01.52 34.14 6.72 12.03 7.52 20.95 20.08 23.79 34.02 3.82 19.37-3.05 40.23-17.38 53.76-14.33 14.58-38.45 18.02-56.27 8.05a58.2 58.2 0 0 1-25.23-29.72c-7.23-19.68-1.99-43.24 13.02-57.91 7.28-7.91 17.2-13.51 27.93-14.92zM946.75 168.75h220.23c23.71.23 47.45-.69 71.12 1.08 24.59 2.02 49.22 6.51 72.12 15.93 13.77 5.76 27.1 12.9 38.78 22.27 15.69 12.71 28.36 29.29 35.87 48.08 8.06 20.18 9.71 42.34 8.19 63.85-1.56 21.83-7.29 43.64-18.64 62.49-10.19 17.18-24.99 31.23-41.35 42.5-24.16 16.35-51.69 27.07-79.54 35.31l138.2 185.96c10.51 14.29 21.52 28.56 35.67 39.47 7.41 5.72 15.2 10.97 23.39 15.52 9.31 5.21 19.76 8.01 30.22 9.86 8.36 1.36 16.76 2.68 25.24 3V743c-51.66-.08-103.32.16-154.97-.12-41.59-65.68-85.11-130.19-131.5-192.59l-50.97-67.25L1110 483v170.01c-.04 12.05-.29 24.49 4.17 35.91 2.12 5.66 6.56 10.18 11.68 13.27 8.43 5.21 18.38 6.88 28.02 8.31 11.92 1.63 23.87 3.2 35.91 3.57v28.9l-243.03.03-.01-28.92c13.07-1.25 26.16-2.44 39.17-4.31 10.03-1.38 20.26-4.93 27.37-12.43 7.33-7.85 10-18.87 10.22-29.35l-.01-422c-.49-8.89-1.84-18.18-6.48-25.94-6.66-9.75-18.84-12.86-29.63-15.58-13.38-3-26.92-5.48-40.6-6.61l-.03-29.11m163.25 33l.05 246.04 58.96-.05c13.95-.47 27.89-2.76 41.11-7.32 32.17-11.12 59.73-36.03 72.67-67.68 8.53-20.69 11.21-43.4 10.3-65.64-.91-21.57-6.45-43.42-18.82-61.35a95.1 95.1 0 0 0-49.04-36.9c-19.6-6.88-40.62-7.31-61.17-7.1H1110zm783.5-24.97l140.28-7.62 6.69 5.61.03 153.2.25 170.08.25 87.97-.01 84.95c-.17 8.66 1.04 17.77 5.85 25.19 3.64 5.74 9.46 9.73 15.69 12.25 11.3 5.28 23.69 7.73 36.06 8.78-.16 8.57-.14 17.13-.01 25.7L1910 743v-25.94c10.47-1.07 21.04-1.61 31.41-3.53 9.04-1.6 17.79-6.74 22.07-15.09 5.31-9.6 4.72-20.89 4.37-31.47l-5.84-411.98c-.05-10.18-2.14-20.24-4.41-30.12-1.43-6.55-3.98-13.82-10.28-17.14-1.74-.93-2.76-2.71-4.36-3.75-6.53-1.29-13.14-2.83-19.83-2.11-9.77.48-19.32 3.18-29.12 3.16l-.51-28.25zm-257.8 167.96c19.41-8.01 40.4-11.77 61.35-12.19 23.65-.21 47.67 2.23 70.02 10.38 14.92 5.59 29.17 13.24 41.51 23.38 12.03 9.78 21.93 22 29.89 35.26 12.74 21.42 19.46 45.92 22.61 70.5 2.64 19.54 1.79 39.28 1.92 58.93h-264.24c-.13 22.12 1.73 44.3 6.23 65.97 4.3 20.72 11.72 40.95 23.24 58.78a113.8 113.8 0 0 0 35.78 35.45c16.97 10.82 37.01 16.04 56.97 17.25 22.33 1.5 45.5-1.51 65.46-12.13 15.98-8.23 28.65-21.52 39.24-35.81 6.84-9.25 12.93-19.03 18.5-29.09l28.63 17.52c-17.16 33.29-43.13 62.24-75.42 81.45a161.7 161.7 0 0 1-48.74 19.03c-25.2 5.38-51.37 5.11-76.78 1.38-35.49-5.21-69.28-21.64-95.04-46.63-25.96-25.72-42.72-59.66-51.02-95.01-6.54-27.19-8.86-55.32-7.49-83.22 2.58-41.86 15.66-83.42 39.69-117.97 19.01-28.06 46.46-50.17 77.69-63.23m53.87 19.01c-18.81 1.84-36.71 10.48-50.16 23.7-11.89 11.39-21.11 25.45-27.3 40.68-8.95 21.8-12.46 45.44-13.41 68.87H1783c-.01-3.01.05-6.01-.1-9-1.11-23.59-3.41-47.46-10.85-69.99-5.92-18.25-17.62-34.87-33.93-45.22-14.4-8.85-32.03-10.64-48.55-9.04zm811.41-22.72a177 177 0 0 1 52.05-8.54c14.01.16 28.05.64 41.99 2.22 13.11 1.53 26.37 3.44 38.67 8.51 17.07 7.04 33.05 17.84 44.14 32.81 10.16 13.6 16.48 29.78 19.59 46.41 2.42 12.38 3.29 25.01 3.58 37.6l-.74 85.93-1.76 112.05c-.14 9.07-.09 18.45 3.36 27 3.89 9.42 11.88 16.67 20.86 21.19 9.88 3.95 20.8 3 31.23 3.28 4.34.06 8.68.38 13.05.26l-.03 25.99c-11.81 4.11-23.6 8.33-35.62 11.77-17.38 4.43-35.83 5.03-53.41 1.44-15.73-3.19-30.53-11.94-39.67-25.3-6.32-8.94-9.97-19.45-12.1-30.1-1.68-1.39-2.98.74-3.97 1.75-13.58 14.86-29.17 27.99-46.6 38.11-17.51 10.39-37.38 16.33-57.57 18.45-24.18 2.53-49.7 1.86-72.01-8.86-24.17-11.45-43.67-33.29-50.44-59.38-4.84-18.09-4.83-37.25-1.53-55.61 4.92-27.23 21.48-52.27 45.01-66.95 10.94-6.76 22.41-12.7 34.33-17.53 22.01-8.36 44.42-15.65 66.67-23.34 22.05-7.35 44.11-14.75 65.65-23.53 6.38-2.6 12.67-5.44 18.78-8.65l-.02-42.04c-1.06-13.37-2.72-26.96-8.21-39.33-5.06-12.21-13.45-22.88-23.75-31.11-10.11-8.65-23.54-12.13-36.57-12.93a96.5 96.5 0 0 0-58.34 14.09c-2.27 1.61-4.87 3.07-6.32 5.49.3 13.96 5.77 27.14 6.98 41 .57 7.81 1.52 16.1-1.77 23.47-5.28 12.1-16.63 21.21-29.49 24.04-9.71 2.08-20.05 2.78-29.66-.11-6.52-1.99-12.25-6.26-16.09-11.87-11.17-15.91-13.22-37.84-4.95-55.47 5.86-12.57 15.66-22.83 26.14-31.71 17.02-14.29 37.4-23.98 58.54-30.5m33.91 214.75c-18.14 9.57-35.4 21.94-47.05 39.11-10.25 14.11-14.73 31.8-14.35 49.09-.11 14.85 2.76 30.51 11.92 42.58 9.97 12.69 25.71 19.94 41.6 21.41 17.4 1.57 35.38-1.22 51.12-8.97 16.07-8.36 30.26-20.21 41.95-34.01.93-1.3 2.3-2.39 2.84-3.95l2.5-138.87c-30.68 9.68-62.02 18.39-90.53 33.61zm523.08-221.93c21.88-2.01 44.53-.99 65.28 6.77 15.62 5.83 29.59 16.07 39.57 29.46 12.42 16.44 19.87 36.21 23.49 56.4 4.12 21.59 3.06 43.66 3.19 65.52l.01 182.04c.23 8.91 2.22 18.32 8.27 25.2 5.53 6.26 13.67 9.09 21.3 11.92 9.08 3.32 18.75 4.42 28.35 5.03.15 8.93.02 17.87.07 26.81h-196l.07-26.87c9.6-.86 19.25-1.31 28.83-2.55 9.45-1.42 19.56-4.74 25.35-12.87 6.02-8.22 7.35-18.8 7-28.72V491.96c-.14-10.63.27-21.28-.23-31.9-1.21-21.21-7.42-43.33-22.79-58.73-11.72-12.49-28.55-20.29-45.79-19.85-27.95-.61-55.05 10.67-76.82 27.69-6.33 4.97-12.01 10.78-16.57 17.42-3.47 5.02-7.31 9.86-9.97 15.36l-.08 216.03c.15 9.66-.83 19.68 2.54 28.96 2.92 8.54 9.69 15.46 17.87 19.16 12.68 6.53 26.98 8.84 41.05 10.08L3002 743c-65.26-.01-130.51.03-195.77-.02l.06-26.8c11.95-1.4 24.23-1.11 35.82-4.75 6.34-1.96 12.39-5.58 16.2-11.14 5.41-7.55 6.8-17.15 6.7-26.23V428.98c.37-17.56-8.36-35.32-23.22-44.9-11.94-6.97-26.12-8.34-39.62-9.44-.39-8.86-.07-17.73-.17-26.59l132.72-8.88c2.1 2.38 6.25 4.09 5.8 7.81l-.06 54.09c3.68-.39 5.54-4.22 8.21-6.38 15.85-14.9 31.23-30.76 50.12-41.89 18.18-10.19 38.41-16.91 59.18-18.95zm371.32 7.58c26.52-8.86 55.05-10.62 82.7-7.38 19.63 2.3 39.03 7.86 56.23 17.73 16.26 9.41 30.94 22.44 39.68 39.28 8.94 16.7 11.75 36.13 10.33 54.86-1.1 10.77-4.69 21.41-11.07 30.21-5.42 7.29-14.13 11.5-23.04 12.49-10.74 1.08-21.87.18-31.95-3.85-13.34-5.5-24.5-18.11-25.62-32.84-.37-13.63 1.63-27.26 5.01-40.44 2.27-9.03 4.33-18.13 5.47-27.38-4.64-7.81-12.13-13.8-20.87-16.34-20.67-6.16-43.57-6.53-63.76 1.62-14.76 5.55-26.49 16.81-36.14 28.95-11.56 14.18-18.78 31.31-24.27 48.61-8.28 25.88-11.39 53.11-12.11 80.17-1.25 41.4 4.26 84.42 24.95 120.96 10.32 18.22 24.13 34.96 42.12 46.02 16.33 10.28 35.81 15.01 55.02 14.66 22.01-.02 44.57-5.18 62.83-17.89 21.28-14.93 37.57-35.9 50.61-58.16 8.93 5.52 17.66 11.39 26.46 17.14-16.92 30.42-41 57-70.48 75.65-17.83 11.49-37.56 20.26-58.36 24.64-20.07 4.37-40.86 4.04-61.16 1.63-23.63-2.88-46.95-10.01-67.43-22.3-28.9-17.17-51.41-43.99-65.7-74.22-11.26-23.57-17.6-49.26-20.51-75.15-2.55-23.99-3.04-48.34.21-72.28 5.03-38.2 20.44-74.94 44.27-105.22 21.74-28.59 52.67-49.69 86.58-61.17zm362.13 2.95c21.67-8.81 45.27-12.31 68.59-11.8 21.23.43 42.66 3.2 62.65 10.66 15.57 5.94 30.38 14.16 43.06 25.04 13.97 12.07 25.18 27.2 33.2 43.8 9.49 19.03 14.51 39.99 17.12 61 2.45 19.21 1.89 38.6 1.96 57.92h-264.49c0 23.81 2.06 47.72 7.45 70.95 4.66 20.19 12.52 39.77 24.21 56.95a112.3 112.3 0 0 0 37.39 34.53c16.45 9.59 35.47 14.06 54.38 15.1 22.48 1.35 45.8-1.96 65.71-12.97 14.05-7.58 25.52-19.1 35.24-31.62 7.93-10.22 14.88-21.17 21.12-32.49 8.65 5.08 17.1 10.51 25.72 15.68.74.79 2.99 1.18 2.36 2.69-17.59 34.28-44.94 63.71-78.58 82.69-15.47 8.71-32.46 14.64-49.9 17.88-24.67 4.49-50.11 3.92-74.8-.05-34.84-5.74-67.97-22.19-93.08-47.08-25.34-25.56-41.9-58.92-50.07-93.76-5.94-24.68-8.35-50.14-7.86-75.49 1.36-45.09 14.64-90.35 40.92-127.3 19.24-27.63 46.51-49.6 77.7-62.33m1.89 43.91c-13.05 12.54-22.41 28.51-28.55 45.44-7.34 20.26-10.34 41.83-11.28 63.28l184.57-.01c-.67-25.56-2.82-51.38-10.19-75.97-5.12-17.26-15.09-33.3-29.45-44.33-14.3-11.6-33.63-14.55-51.5-13.18-20.12 1.39-39.46 10.45-53.6 24.77zm-1657.48-37l139.69-8.77c2.48 2.25 6.64 4.51 6.01 8.43l.02 323c.38 9.28 2.91 19.12 9.77 25.78 5.09 5.25 12.18 7.64 18.86 10.17 9.56 3.53 19.61 5.79 29.8 6.41L2340 743c-63.93-.03-127.86.07-191.79-.05l.02-26.62c9.09-.82 18.24-1.21 27.28-2.65 8.19-1.43 16.77-4.18 22.45-10.61 6.45-7.4 8.4-17.55 8.54-27.09V430.95a49.3 49.3 0 0 0-24.47-42.17c-5.97-3.26-12.54-5.18-19.11-6.73-8.92-2.15-17.99-3.81-27.15-4.36l.06-26.4z"/><path d="M567.73 800.62c68.05-3.71 136.18 3.78 203.12 15.65l-.04.42c-27.74 3.07-55.3 8.42-81.88 17.01-21.96 7.06-43.08 16.61-63.05 28.12-20.73 11.87-40.14 25.83-59.86 39.26-21.58 14.77-43.99 28.52-68.01 38.95-43.77 19.3-91.49 27.76-138.97 31.11-9.62 1.05-19.54.27-28.91 3.07-9.53 3.13-15.73 11.95-20.91 20.03-1.09 2.09-.65 4.54-.75 6.82 1.06 43.42 3.38 86.82 6.61 130.13 4.18-8.04 8.11-16.28 13.48-23.64 10.16-14.48 23.89-26.66 40.14-33.83 21.52-9.73 46.07-10.41 69-6.21 19.96 3.67 39.27 10.5 57.59 19.15-18.03 2.65-35.59 8.34-51.61 17.04-17.79 9.43-34.08 21.76-53.04 28.91-20.87 8.14-43.88 9.12-65.9 6.23-2.47 3.38-4.39 7.11-6.34 10.8-.96 1.95-2.11 4-1.82 6.27 3.57 53.62 7.05 107.31 6.68 161.07-.67 45.45-3.74 91.33-15.88 135.33-3.86 13.84-8.67 27.42-14.69 40.47-2.13 3.93-3.51 8.39-6.47 11.79 12.58-48.76 15.61-99.38 15.53-149.56-.87-103.14-13.86-205.81-13.72-308.98-.04-1.73.18-3.61-.93-5.06-6.75-11.4-17.84-19.17-28.45-26.66-10.63-7.49-21.14-15.89-27.74-27.33-3.9-6.57-6.32-13.92-7.8-21.38 2.61 3.53 4.43 7.6 7.27 10.98 10.29 13.32 25.55 21.2 38.05 32.11 9.15 7.63 16.08 17.87 19.37 29.36.75-11.66.43-23.36 1.13-35.02 1.9-45.89 7.18-91.83 18.67-136.37 4.12-15.17 8.29-30.44 14.31-44.96-2.91 16.02-6.01 32.04-7.84 48.24-3.97 31.27-5.34 62.81-5.84 94.3 7.16-15.86 16.29-30.74 25.87-45.25 7.36-10.83 14.46-21.89 22.97-31.87 22.21-26.5 51.58-46.39 83.34-59.69 40.28-16.89 83.91-24.26 127.32-26.81m48.18 23.74c-34.19 3.41-68.03 10.1-101.1 19.41-36.06 10.26-71.24 23.89-104.21 41.81-25.07 13.75-48.91 29.81-70.78 48.25-11.36 9.89-22.57 20.27-31.29 32.63-.67 7.19-.08 14.5-.29 21.74 18.64-29.26 43.38-54.32 71.24-74.87 46.27-34.1 100.24-56.43 155.53-71.2 32.18-8.48 64.97-14.79 98.04-18.63-5.73-.44-11.44.44-17.14.86m-267.88 278.49c-12.39 7.93-23.31 18.03-32.6 29.41-.69 3.09.24 6.37.07 9.55 11.63-18.41 28.21-33.63 47.49-43.75 23.87-12.67 51.19-17.59 78.03-17.56 3.05-.01 6.14.55 9.18-.03-35.2-4.05-72.14 3.24-102.17 22.38zM2480.74 862.8l116.29-6.72c3.1-.79 4.66 2.59 6.71 4.26l.04 393.68c-.04 15.87 13.34 30.51 29.33 31.17 7.2.84 14.47.98 21.7 1.61-.11 6.36-.09 12.73-.01 19.1l-101.22 6.67c-1.51-1.53-3.47-2.71-4.5-4.57-.26-9.05.09-18.11-.17-27.16-1.79-.28-3.02.87-4.05 2.11-12.11 12.92-27.39 22.66-43.76 29.26-21.85 8.73-46.61 9.61-69.12 2.86-16.12-4.86-31.23-13.12-43.93-24.17-26.47-23.14-42.3-56.66-48.14-90.95-4.77-29.55-3.77-60.48 6.2-88.9 9-25.58 23.9-49.54 44.89-66.98 20.22-16.41 45.08-27.38 71.03-30.17a155.3 155.3 0 0 1 86.4 17.36l.07-86.27c-.13-10.12.68-20.45-2.03-30.33-2.01-7.17-5.2-14.3-10.76-19.41-7.35-6.49-17.24-9.04-26.66-10.7-9.38-1.56-18.84-2.56-28.3-3.37l-.01-18.38m-16.82 175.41c-10.15 2.86-19.3 8.63-27.04 15.7-14.84 13.63-24.22 32.16-29.67 51.34-7.03 24.2-9.19 49.65-8.15 74.77 1.01 23.03 5.48 46.52 17.42 66.55 6.89 12.26 16.38 23.22 28.4 30.68 16.41 10.7 37.23 12.48 56.13 8.93 8.32-1.65 16.36-4.92 23.29-9.87a126.3 126.3 0 0 0 24.18-21.4l-.06-168.86c-3.29-11.9-10.33-22.71-18.99-31.45-17.04-16.38-42.77-22.69-65.51-16.39zm788.4-171.76c9.32-1.75 19.43-.43 27.6 4.55 8.22 5.19 14.51 13.57 16.91 23.03 3.83 15.42-1.83 32.58-13.95 42.81-9.95 8.91-25.23 10.97-37.33 5.56-13.58-6.61-23.43-21.17-23.09-36.46-.34-17.74 12.35-35.47 29.86-39.49zM954 894h327.5l.01 104.48c-7.45.01-14.9.08-22.35-.03-4.39-16.37-12.77-31.37-22.46-45.16-6.67-9.44-13.99-18.64-23.26-25.66-5.64-4.25-12.23-7.47-19.33-8.13-22.27-2.46-44.71-2.2-67.08-2.25h-50.78v167.5l47.81.01c10.14-.22 20.4-.67 30.23-3.44a54.2 54.2 0 0 0 23.05-14.03c4.46-4.58 7.31-10.4 9.79-16.22a118.1 118.1 0 0 0 8.18-34.24c7.56-.19 15.12-.04 22.69-.08l-.05 164.04-22.6-.02c-.79-11.22-3.61-22.18-7.1-32.84-2.72-7.77-5.77-15.71-11.28-21.97a44.2 44.2 0 0 0-22.05-13.59c-10.37-2.8-21.18-3.76-31.9-3.62-15.6.06-31.2-.1-46.8.08l.04 143.13c.09 7.75 1.75 15.86 6.71 22.02 4.57 5.39 11.11 8.83 17.97 10.32 11.2 2.64 22.52 5.07 34.03 5.84l.03 21.11H954l.04-21.14c12-.84 24.05-1.55 35.96-3.43 8.08-1.13 15.75-5.98 19.53-13.32 3.89-7.1 4.12-15.44 3.97-23.33V958.99c.12-8.14-.38-16.78-4.58-23.97-4.75-7.14-13.11-10.54-20.92-13.14a186.9 186.9 0 0 0-34-6.9V894zm2068.24 38.25l53.73-.03.03 90.01 83.14-.03c.24 9.51.07 19.04.08 28.57l-82.71-.01-.01 161.2c.4 12.69.23 25.5 2.58 38.03 2 9.35 6.23 18.96 14.44 24.46 9.43 6.36 21.29 7.29 32.36 7.17 13.24-.76 26.71-1.2 39.58-4.71l-.08 21.9c-19.92 7.52-39.81 16.52-61.34 17.99-18.82 1.41-39.06 1.64-56.08-7.72-14.51-8-22.02-24.33-24.91-40-2.56-12.9-1.65-26.08-1.81-39.12v-179.19c-17.46 0-34.92-.07-52.38.03a649.7 649.7 0 0 1 .02-28.61l53.36.05v-89.99zm-1584.8 81.36c21.01-1.73 42.51-.29 62.63 6.31 32.81 10.59 60.6 35.01 76.38 65.54 8.87 17.27 13.84 36.35 15.84 55.6 4.03 39.16-2.87 80.13-22.96 114.29-17.46 29.07-46.16 51.58-79.24 59.8-25.48 6.3-52.72 6.99-78.13.01-31.61-8.56-59.41-29.59-76.93-57.17-10.82-17-18.34-36.11-21.94-55.94-3.55-19.48-3.86-39.49-1.66-59.14 2.26-19.9 7.82-39.52 17.25-57.23 14.6-27.28 38.1-50.21 66.9-62.06 13.31-5.53 27.52-8.72 41.86-10.01m1.16 23.16c-13.84 2.29-26.48 9.69-35.94 19.94-13.21 13.88-20.97 32.08-25.45 50.49-5.85 26.09-7.12 53.08-5.06 79.69 1.57 19.91 4.92 39.91 12.58 58.46 6.29 15.56 15.66 30.39 29.34 40.45 13.85 10.49 32.25 13.28 49.14 10.9 15.1-2.07 28.79-10.54 38.54-22.09 12.64-14.82 20.12-33.34 24.56-52.13 5.21-22.38 6.47-45.49 5.8-68.4-1.07-19-3.54-38.05-8.8-56.37-5.51-18.98-15.28-37.53-31.33-49.62-14.84-11.83-35.1-14.55-53.38-11.32zm726.33-22.96c15.83-1.41 32.23-.57 47.2 5.15 11.48 4.34 21.72 12.01 28.86 22.02 9.52 12.85 14.77 28.41 17.11 44.12 2.17 13.85 1.58 27.9 1.66 41.87v127.06c-.08 5.9-.23 11.95 1.72 17.61a20.8 20.8 0 0 0 9.83 12.1c9.29 5 19.77 7.62 30.31 7.82.3 6.54.03 13.08.16 19.63-47.39.18-94.77-.05-142.16.11-.25-6.56-.13-13.12-.06-19.68 9.74-1.04 19.81-.67 29.21-3.85 5.32-1.77 9.87-5.74 12.25-10.83 2.69-5.57 3.12-11.88 2.99-17.96l-.02-149.01c-.37-15.5-3.73-31.8-13.91-43.97-5.76-6.91-13.23-12.56-21.84-15.31-9.1-3.08-18.92-2.47-28.27-1.1-15.12 2.53-29.37 9.42-41.39 18.84-8.2 6.25-14.2 14.84-19.39 23.63l-.19 154.96c.18 7.28-.68 14.74 1.29 21.87a24.1 24.1 0 0 0 11.37 14.38c9.73 5.47 20.94 7.52 31.96 8.31.3 6.53.02 13.07.16 19.6-47.38.2-94.76-.05-142.14.13-.3-6.56-.11-13.12-.11-19.67 10.51-1.23 21.78-.56 31.36-5.76 7.77-4.24 11-13.51 11.1-21.92l.01-175.94c-.04-4.36.25-8.77-.63-13.05-1.86-9.81-7.58-18.95-15.93-24.48-8.79-5.19-19.23-6.12-29.17-7.03l-.01-19.31 96.77-6.47c1.35 1.67 4.02 2.83 3.96 5.29l.04 39.77c2.54-.74 4-3.13 5.9-4.8 12.06-11.35 23.79-23.47 38.42-31.55 12.85-6.88 27.04-11.32 41.58-12.58zm579.17 13.17c18.69-8.71 39.15-14.44 59.91-13.98a236.4 236.4 0 0 1 40.03 3.01c16.19 2.51 31.49 10.31 43.17 21.78 13.11 13.3 19.55 31.79 21.43 50.08 1.6 12.97 1 26.06 1.11 39.1-.15 43.7-2.28 87.38-1.69 131.1.35 6.56 2.31 13.25 6.79 18.22 4.48 4.95 10.34 9.23 17.2 9.85 8.45 1.01 17.01.56 25.52.96a469.3 469.3 0 0 0 0 18.76c-7.49 2.94-15.15 5.41-22.81 7.84-11.53 3.49-23.82 4.27-35.76 2.89-10.15-1.22-20.25-4.82-27.99-11.66-8.71-7.57-13.64-18.64-15.6-29.84-2.67.3-3.98 2.88-5.73 4.56-11.33 11.67-24.38 21.83-39.07 28.91-11.46 5.45-24 8.32-36.58 9.46-17.36 1.48-35.65.59-51.36-7.66-15.47-7.98-28.2-21.8-33.6-38.47-4.4-12.79-4.6-26.62-3.01-39.92 2.06-17.1 10.44-33.24 22.95-45.02 10.21-9.22 22.75-15.36 35.29-20.73 22.31-8.36 45.01-15.68 67.55-23.4 14.33-5.09 28.76-10.07 42.36-16.95-.26-13.99 1-28.11-1.38-41.98-1.94-15.37-9.65-30.17-21.98-39.72-8.51-7.22-20.03-9.5-30.9-9.44-14.21-.46-28.64 3.76-40.24 11.98-3.73 1.85-1.81 6.26-1.53 9.46 2.17 11.69 6.16 23.44 4.44 35.47-2.55 11.04-12.4 19.54-23.31 21.83-7.78 1.49-16.24 2.01-23.67-1.17-8.11-3.6-12.63-12.05-14.93-20.21a41 41 0 0 1 5.54-33.81c9.34-13.74 23.04-24.04 37.85-31.3m36.85 152.88c-12.46 7.5-23.58 17.81-30.3 30.85-5.73 11.48-7.1 24.73-5.63 37.36 1.02 8.92 4.01 17.96 10.29 24.6 7.45 7.76 17.96 12.23 28.62 13.11 11.66.94 23.64-.74 34.34-5.57 13.63-6.43 25.3-16.58 34.72-28.25l1.77-101.06c-25.27 7.68-51.13 15.03-73.81 28.96zm716.52-166.28c21.24-1.72 43-.18 63.28 6.69 34.12 11.29 62.68 37.59 77.76 70.09 7.94 17.15 12.25 35.82 13.8 54.61 3.1 36.42-3.36 74.11-20.96 106.35-15.77 28.23-41.8 51.07-72.7 61.19-22.37 7.36-46.46 9.17-69.77 6.24-34.45-4.61-66.52-23.58-87.5-51.23-11.32-14.89-19.67-31.96-24.94-49.88-6.72-23.5-8-48.33-5.55-72.57 3.28-34.69 17.59-68.85 42.75-93.35 21.9-22.66 52.59-35.74 83.83-38.14m1.06 23.16c-20.96 3.25-38.22 18.38-48.4 36.41-9.19 15.81-14.04 33.73-16.49 51.74-3.53 24.19-3.46 48.84-.73 73.11 2.57 22.36 8.27 44.76 19.87 64.24 8.13 13.43 19.81 25.42 34.71 31.1 11.01 4 23.04 5.01 34.64 3.49 13.73-1.78 26.53-8.69 36.08-18.65 13.04-13.64 21.17-31.25 26.14-49.29 6.12-22.39 7.8-45.74 7.64-68.87-.64-20.43-3.12-40.9-8.49-60.65-5.51-19.78-15.52-39.16-32.3-51.62-14.74-11.49-34.66-14.16-52.67-11.01zm334.15-7.98c16.9-10.25 36.66-15.51 56.4-15.53 17.31-.3 35.38 2.82 49.92 12.75 14.76 9.95 24.03 26.27 29 43.03 4.44 14.89 5.31 30.52 5.26 45.97v147.04c.09 8.1 3.24 16.83 10.51 21.17 9.53 5.53 20.54 8 31.49 8.5l-.02 19.56H3873c.07-6.57-.2-13.15.16-19.71 10.98-1.12 22.74-.3 32.83-5.53 8.57-4.55 11.48-14.96 11.49-24.03l.02-129.01c-.13-17.95 1.28-36.69-5.96-53.59-6.51-15.78-21.21-28.74-38.52-30.57-21.59-2.04-43.21 5.87-60.18 18.95-8.58 6.34-14.97 15.14-20.19 24.31l-.15 156.91c.17 7.25-.82 14.78 1.8 21.75 2.38 6.73 8.11 11.76 14.6 14.45 8.71 4.37 18.65 5.21 28.03 6.78.18 6.42-.01 12.86.07 19.29h-142.25l-.01-19.56c10.67-1.31 22.17-.57 31.88-5.97 7.88-4.57 10.82-14.17 10.86-22.8l.02-173.9c.08-6.48.13-13.12-2.11-19.28-3.21-9.11-9.61-17.62-18.74-21.36-7.88-3.41-16.54-4-24.94-5.04l.07-19.23 94.26-6.34c2.9-.68 4.46 2.41 6.42 4l.18 41.14c6.26-4.76 11.39-10.82 17.32-15.98 7.1-6.61 14.5-12.97 22.72-18.17zm-2208.27-4.23l95.65-6.78c2.2.26 4.36 2.41 5.37 4.31l.07 173.91c.12 13.02-.4 26.08.68 39.08 1.3 13.54 5.54 27.48 15.35 37.35 6.78 6.98 15.65 12.13 25.38 13.46 19.57 2.21 39.67-3.78 55.39-15.52 7.76-5.86 14.79-12.74 20.44-20.68 1.46-2.38 3.78-4.62 3.76-7.58v-163.06c.11-13.13-7.84-26.45-20.07-31.56-11.23-3.25-23.13-2.45-34.67-3.35l-.01-19.41 103.33-6.94c2.93-.35 6 2.5 6.66 5.2l.02 222c.03 5.68-.42 11.5 1.2 17.05 2.01 7.84 7.62 14.29 14.16 18.83 8.4 5.47 18.85 4.97 28.44 5.84 1.3.82.4 2.94.72 4.31l-.02 14.94-93.5 6.52c-2.17.18-3.44-2.16-4.92-3.37-1.27-.99-.76-2.73-.87-4.06l.01-33.75c-2.82.77-4.22 3.61-6.28 5.43-7.3 7.06-14.39 14.44-22.76 20.25-10.6 7.3-22.04 13.55-34.28 17.62-11.82 3.72-24.36 4.06-36.65 3.94-17.27.11-35.15-4.68-48.44-16.09-14.09-11.91-21.88-29.61-25.47-47.37-4.18-19.08-2.92-38.69-3.1-58.06v-98.97c-.18-7.98.49-16.01-.71-23.93-1.86-12.19-11.26-22.68-22.94-26.41-7.17-2.23-14.69-2.97-22.13-3.66.13-6.5-.19-13 .19-19.49zm1561.19-.47l102.44-6.39 4.25 4.31-.05 235.06c-.28 7.51 1.08 15.64 6.21 21.46 4.31 4.96 10.8 6.99 16.81 9.14 6.35 2.24 13.02 3.45 19.74 4.05v19.56c-46.81.03-93.61-.05-140.41.04-.18-6.56-.14-13.12-.02-19.67 10.74-1.2 22.35-.51 32.03-6.12 8.05-4.77 10.6-14.8 10.64-23.57v-167.95c-.15-7.24.67-14.7-1.6-21.71-3.13-10.51-11.37-19.46-21.77-23.07-9.15-3.15-18.76-4.86-28.36-5.78l.09-19.36z" fill="#00a651"/></svg>